<?xml version="1.0" encoding="utf-8"?>
<!-- Generator: Adobe Illustrator 19.2.1, SVG Export Plug-In . SVG Version: 6.00 Build 0)  -->
<svg version="1.1" id="Layer_1" xmlns="http://www.w3.org/2000/svg" xmlns:xlink="http://www.w3.org/1999/xlink" x="0px" y="0px"
	 viewBox="0 0 47 14.6" style="enable-background:new 0 0 47 14.6;" xml:space="preserve">
<style type="text/css">
	.st0{fill:#2B3894;}
	.st1{fill:#F79510;}
</style>
<path class="st0" d="M15.9,14.4l2.3-14.1h3.6l-2.3,14.1L15.9,14.4 M32.7,0.6c-1-0.4-2.1-0.6-3.3-0.6c-3.6,0-6.1,1.9-6.2,4.7
	c0,2,1.8,3.2,3.2,3.8c1.4,0.7,1.9,1.1,1.9,1.8c0,0.9-1.1,1.4-2.2,1.4c-1.5,0-2.2-0.2-3.4-0.7l-0.5-0.2l-0.5,3.2
	c0.8,0.4,2.4,0.7,4.1,0.8c3.8,0,6.3-1.9,6.3-4.8c0-1.6-1-2.8-3.1-3.8c-1.3-0.7-2.1-1.1-2-1.8c0-0.6,0.7-1.2,2.1-1.2
	c0.9,0,1.9,0.2,2.7,0.5l0.3,0.2L32.7,0.6 M37.6,9.4C37.9,8.5,39,5.4,39,5.4c0,0,0.3-0.8,0.5-1.3l0.2,1.2c0,0,0.7,3.4,0.8,4.1H37.6
	L37.6,9.4z M42.1,0.3h-2.8c-0.9,0-1.5,0.3-1.9,1.2l-5.4,12.9h3.8c0,0,0.6-1.7,0.8-2.1l4.7,0c0.1,0.5,0.4,2.1,0.4,2.1H45L42.1,0.3
	 M12.8,0.3L9.2,9.9l-0.4-2C8.2,5.7,6.1,3.2,3.8,2l3.3,12.3l3.9,0l5.7-14.1L12.8,0.3"/>
<path class="st1" d="M5.9,0.2H0L0,0.5c4.6,1.2,7.6,4,8.9,7.4L7.6,1.4C7.4,0.5,6.7,0.3,5.9,0.2"/>
<path class="st0" d="M46,13.4h0.2c0.1,0,0.1-0.1,0.1-0.1c0-0.1-0.1-0.1-0.2-0.1H46L46,13.4L46,13.4z M45.9,13.1h0.4
	c0.1,0,0.3,0,0.3,0.2c0,0.1,0,0.1-0.1,0.2v0c0.1,0,0.1,0.1,0.1,0.2c0,0.1,0,0.1,0,0.2h-0.2c0,0,0,0,0-0.2c0-0.1,0-0.2-0.2-0.2H46
	v0.3h-0.2L45.9,13.1L45.9,13.1z M46.2,14.2c0.4,0,0.7-0.3,0.7-0.7s-0.3-0.7-0.7-0.7s-0.7,0.3-0.7,0.7S45.8,14.2,46.2,14.2z
	 M46.2,12.7c0.4,0,0.8,0.4,0.8,0.8c0,0.4-0.4,0.8-0.8,0.8c0,0,0,0,0,0c-0.4,0-0.8-0.4-0.8-0.8c0,0,0,0,0,0
	C45.4,13,45.7,12.7,46.2,12.7"/>
</svg>
